<mxfile host="app.diagrams.net" modified="2021-12-15T13:14:28.973Z" agent="5.0 (Windows NT 10.0; Win64; x64) AppleWebKit/537.36 (KHTML, like Gecko) Chrome/96.0.4664.93 Safari/537.36" etag="N_RUgXUwOgbZmITKz0Gr" version="15.9.4" type="github">
  <diagram id="rJfPnjySZVLOfFBN-i55" name="Page-1">
    <mxGraphModel dx="1944" dy="637" grid="1" gridSize="10" guides="1" tooltips="1" connect="1" arrows="1" fold="1" page="1" pageScale="1" pageWidth="827" pageHeight="1169" math="0" shadow="0">
      <root>
        <mxCell id="0" />
        <mxCell id="1" parent="0" />
        <mxCell id="DPilvui2ZwHi3SOUnTlI-1" value="Employee" style="whiteSpace=wrap;html=1;align=center;" parent="1" vertex="1">
          <mxGeometry x="110" y="300" width="100" height="40" as="geometry" />
        </mxCell>
        <mxCell id="DPilvui2ZwHi3SOUnTlI-2" value="Social Security Number" style="ellipse;whiteSpace=wrap;html=1;align=center;fontStyle=4;" parent="1" vertex="1">
          <mxGeometry x="-20" y="210" width="100" height="40" as="geometry" />
        </mxCell>
        <mxCell id="DPilvui2ZwHi3SOUnTlI-3" value="PhoneNumber" style="ellipse;whiteSpace=wrap;html=1;align=center;" parent="1" vertex="1">
          <mxGeometry x="-20" y="360" width="100" height="40" as="geometry" />
        </mxCell>
        <mxCell id="DPilvui2ZwHi3SOUnTlI-4" value="Name" style="ellipse;whiteSpace=wrap;html=1;align=center;" parent="1" vertex="1">
          <mxGeometry x="-20" y="260" width="100" height="40" as="geometry" />
        </mxCell>
        <mxCell id="DPilvui2ZwHi3SOUnTlI-5" value="EmployeeID" style="ellipse;whiteSpace=wrap;html=1;align=center;" parent="1" vertex="1">
          <mxGeometry x="-20" y="310" width="100" height="40" as="geometry" />
        </mxCell>
        <mxCell id="DPilvui2ZwHi3SOUnTlI-6" value="Email" style="ellipse;whiteSpace=wrap;html=1;align=center;" parent="1" vertex="1">
          <mxGeometry x="-20" y="410" width="100" height="40" as="geometry" />
        </mxCell>
        <mxCell id="DPilvui2ZwHi3SOUnTlI-12" value="Product" style="whiteSpace=wrap;html=1;align=center;" parent="1" vertex="1">
          <mxGeometry x="400" y="220" width="100" height="40" as="geometry" />
        </mxCell>
        <mxCell id="DPilvui2ZwHi3SOUnTlI-13" value="Restocks" style="shape=rhombus;perimeter=rhombusPerimeter;whiteSpace=wrap;html=1;align=center;" parent="1" vertex="1">
          <mxGeometry x="244" y="210" width="120" height="60" as="geometry" />
        </mxCell>
        <mxCell id="DPilvui2ZwHi3SOUnTlI-16" value="In" style="shape=rhombus;perimeter=rhombusPerimeter;whiteSpace=wrap;html=1;align=center;" parent="1" vertex="1">
          <mxGeometry x="390" y="290" width="120" height="60" as="geometry" />
        </mxCell>
        <mxCell id="DPilvui2ZwHi3SOUnTlI-19" value="Section" style="whiteSpace=wrap;html=1;align=center;" parent="1" vertex="1">
          <mxGeometry x="400" y="380" width="100" height="40" as="geometry" />
        </mxCell>
        <mxCell id="DPilvui2ZwHi3SOUnTlI-21" value="Name" style="ellipse;whiteSpace=wrap;html=1;align=center;" parent="1" vertex="1">
          <mxGeometry x="400" y="480" width="100" height="40" as="geometry" />
        </mxCell>
        <mxCell id="DPilvui2ZwHi3SOUnTlI-23" value="Responsible" style="shape=rhombus;perimeter=rhombusPerimeter;whiteSpace=wrap;html=1;align=center;" parent="1" vertex="1">
          <mxGeometry x="244" y="370" width="120" height="60" as="geometry" />
        </mxCell>
        <mxCell id="DPilvui2ZwHi3SOUnTlI-29" value="In Stock" style="ellipse;whiteSpace=wrap;html=1;align=center;" parent="1" vertex="1">
          <mxGeometry x="400" y="120" width="100" height="40" as="geometry" />
        </mxCell>
        <mxCell id="DPilvui2ZwHi3SOUnTlI-30" value="Recipe" style="ellipse;whiteSpace=wrap;html=1;align=center;" parent="1" vertex="1">
          <mxGeometry x="400" y="20" width="100" height="40" as="geometry" />
        </mxCell>
        <mxCell id="DPilvui2ZwHi3SOUnTlI-31" value="Price" style="ellipse;whiteSpace=wrap;html=1;align=center;" parent="1" vertex="1">
          <mxGeometry x="400" y="70" width="100" height="40" as="geometry" />
        </mxCell>
        <mxCell id="DPilvui2ZwHi3SOUnTlI-32" value="Expiration" style="ellipse;whiteSpace=wrap;html=1;align=center;" parent="1" vertex="1">
          <mxGeometry x="400" y="170" width="100" height="40" as="geometry" />
        </mxCell>
        <mxCell id="DPilvui2ZwHi3SOUnTlI-39" value="On Sale" style="shape=rhombus;perimeter=rhombusPerimeter;whiteSpace=wrap;html=1;align=center;" parent="1" vertex="1">
          <mxGeometry x="540" y="210" width="120" height="60" as="geometry" />
        </mxCell>
        <mxCell id="DPilvui2ZwHi3SOUnTlI-40" value="Sale" style="whiteSpace=wrap;html=1;align=center;" parent="1" vertex="1">
          <mxGeometry x="700" y="220" width="100" height="40" as="geometry" />
        </mxCell>
        <mxCell id="DPilvui2ZwHi3SOUnTlI-41" value="SaleID" style="ellipse;whiteSpace=wrap;html=1;align=center;fontStyle=4;" parent="1" vertex="1">
          <mxGeometry x="700" y="170" width="100" height="40" as="geometry" />
        </mxCell>
        <mxCell id="DPilvui2ZwHi3SOUnTlI-42" value="SectionID" style="ellipse;whiteSpace=wrap;html=1;align=center;fontStyle=4;" parent="1" vertex="1">
          <mxGeometry x="400" y="430" width="100" height="40" as="geometry" />
        </mxCell>
        <mxCell id="0T-3kJ46faHJmdFhMFqx-1" value="Mentor" style="shape=rhombus;perimeter=rhombusPerimeter;whiteSpace=wrap;html=1;align=center;" vertex="1" parent="1">
          <mxGeometry x="100" y="190" width="120" height="60" as="geometry" />
        </mxCell>
      </root>
    </mxGraphModel>
  </diagram>
</mxfile>
